<?xml version="1.0" encoding="UTF-8"?>
<svg version="1.1" xmlns="http://www.w3.org/2000/svg" width="1024" height="1024">
<path d="M0 0 C337.92 0 675.84 0 1024 0 C1024 337.92 1024 675.84 1024 1024 C686.08 1024 348.16 1024 0 1024 C0 686.08 0 348.16 0 0 Z " fill="#F9F9F9" transform="translate(0,0)"/>
<path d="M0 0 C1.37895689 -0.00391162 1.37895689 -0.00391162 2.78577149 -0.00790226 C4.28764931 -0.00455618 4.28764931 -0.00455618 5.81986809 -0.0011425 C6.89035326 -0.00270249 7.96083843 -0.00426248 9.06376255 -0.00586975 C12.65711008 -0.00986389 16.25041549 -0.00669614 19.84376335 -0.00355339 C22.41775347 -0.00490818 24.9917434 -0.00668855 27.56573296 -0.00886345 C33.8366077 -0.01331157 40.10747047 -0.01234866 46.37834568 -0.00945081 C51.47824782 -0.00719182 56.5781466 -0.00688641 61.67804909 -0.00797462 C62.76714899 -0.00820447 62.76714899 -0.00820447 63.87825092 -0.00843897 C65.35335121 -0.0087587 66.82845149 -0.00908291 68.30355178 -0.00941156 C82.14000647 -0.01226386 95.97645455 -0.00898387 109.81290816 -0.00361119 C121.67101556 0.00085096 133.52911316 0.00008529 145.38722038 -0.00452995 C159.16509184 -0.00988989 172.94295749 -0.01198323 186.72082984 -0.00891769 C188.19231788 -0.00859915 189.66380592 -0.00828478 191.13529396 -0.00797462 C191.85923219 -0.00782035 192.58317042 -0.00766607 193.32904617 -0.00750712 C198.41649447 -0.0066458 203.50393907 -0.00809667 208.5913868 -0.01045418 C215.45153857 -0.01356328 222.31167162 -0.01132718 229.17182159 -0.00555992 C231.68601959 -0.00424077 234.20021914 -0.00461206 236.7144165 -0.00682259 C240.15445431 -0.00956752 243.59443359 -0.00611212 247.0344677 -0.0011425 C248.02233524 -0.00337322 249.01020279 -0.00560395 250.02800572 -0.00790226 C256.50548214 0.01016459 262.86675546 0.4628672 269.30811882 1.12584114 C270.34065788 1.20705208 271.37319695 1.28826302 272.43702507 1.37193489 C277.75887632 1.79050746 282.88641554 2.53686968 288.10499382 3.66099739 C289.84742489 4.02863799 291.60772315 4.3114989 293.37061882 4.56334114 C297.48703882 5.35159178 301.36197722 6.73153777 305.30811882 8.12584114 C304.97870349 13.23177873 304.36336813 17.39954351 302.37061882 22.12584114 C295.34532839 38.85880563 296.99283826 58.89040219 303.68311882 75.56334114 C304.53076138 77.43017298 305.40415199 79.28562295 306.30811882 81.12584114 C306.69999382 81.92505989 307.09186882 82.72427864 307.49561882 83.54771614 C317.36668637 102.38067397 334.20218433 115.36767318 354.02296257 122.45396614 C368.51466024 126.87465833 384.95120716 126.98720047 399.30811882 122.12584114 C400.37546257 121.83580208 400.37546257 121.83580208 401.46436882 121.53990364 C407.63129053 119.7680642 413.22899786 116.76556592 418.90089226 113.81846809 C424.11178085 111.12584114 424.11178085 111.12584114 426.30811882 111.12584114 C434.17348882 129.66189643 437.47384878 148.99789545 437.44183159 169.095644 C437.44522992 170.6849458 437.44522992 170.6849458 437.44869691 172.3063547 C437.45499327 175.83319025 437.45421035 179.35998694 437.45338249 182.88682747 C437.45637683 185.42562598 437.45977999 187.96442405 437.4635601 190.50322151 C437.47146416 196.67182248 437.47461373 202.84040938 437.47517248 209.00901494 C437.47564927 214.0314808 437.47771212 219.05394352 437.48087311 224.07640839 C437.48967439 238.35404449 437.49429366 252.6316731 437.49354263 266.90931193 C437.4934827 268.06196386 437.4934827 268.06196386 437.49342155 269.23790169 C437.49336023 270.39198207 437.49336023 270.39198207 437.49329767 271.56937721 C437.49289203 284.01233086 437.50244224 296.45525412 437.51655992 308.898199 C437.53098189 321.71182975 437.53782682 334.52544575 437.53696615 347.3390848 C437.53663603 354.51774516 437.53930061 361.69637372 437.5501442 368.8750267 C437.5602946 375.63762022 437.55985486 382.40013606 437.55262756 389.16273689 C437.55159052 391.62920098 437.55389153 394.09566938 437.55998802 396.56212616 C437.60508624 416.09043217 436.54441965 435.21037012 432.99561882 454.43834114 C432.77978142 455.62403694 432.56394402 456.80973274 432.34156609 458.03135872 C430.03466035 470.25269528 426.8327861 481.93393452 421.30811882 493.12584114 C420.73734537 494.33916607 420.16708227 495.55273115 419.59718132 496.76646614 C403.08342153 531.42316467 374.63038377 553.32412315 338.99561882 566.43834114 C328.41478313 570.13604855 317.30742914 572.10612584 306.30811882 574.12584114 C305.37177605 574.30695442 304.43543327 574.4880677 303.47071648 574.67466927 C286.26140515 577.82317449 268.68393866 577.27999299 251.26124382 577.28697395 C248.54908885 577.2910816 245.83693712 577.296617 243.12478447 577.30201912 C235.79584345 577.31549806 228.46690796 577.32161028 221.13795662 577.32602978 C216.54724579 577.32880914 211.956537 577.33304932 207.36582756 577.33753395 C194.61263983 577.34971134 181.85945371 577.3600147 169.1062603 577.36340904 C168.29289619 577.36362861 167.47953207 577.36384817 166.64152056 577.36407439 C165.8264107 577.36429267 165.01130083 577.36451095 164.17149067 577.36473584 C162.52025604 577.36517928 160.86902141 577.36562584 159.21778679 577.36607552 C158.39874874 577.36629695 157.5797107 577.36651838 156.73585331 577.36674652 C143.48051307 577.37069011 130.22522794 577.38813765 116.96990895 577.41143504 C103.30517442 577.43525491 89.64046742 577.44761564 75.97571182 577.44877696 C68.32586338 577.4496876 60.67608686 577.45528412 53.02625847 577.47359657 C46.51033559 577.48914186 39.99450691 577.49403425 33.47856897 577.48585847 C30.16608538 577.4820026 26.85394185 577.48432465 23.54145813 577.49691582 C-19.93500812 577.65231815 -66.69804039 570.56286681 -100.69188118 541.12584114 C-101.20009407 540.69303841 -101.70830696 540.26023567 -102.23192024 539.8143177 C-118.07285412 526.25194217 -128.92608486 509.98370083 -137.69188118 491.12584114 C-138.20621712 490.03529427 -138.72055305 488.94474739 -139.25047493 487.82115364 C-147.53112882 468.85092836 -151.20099404 446.99426676 -152.80070686 426.44618416 C-152.88496162 425.36877059 -152.96921638 424.29135702 -153.05602431 423.18129456 C-153.90632921 411.45294716 -153.97354234 399.75390386 -153.95067024 388.00035286 C-153.9533897 385.60411155 -153.95695591 383.20787109 -153.96129036 380.81163216 C-153.97029441 374.39133835 -153.9669228 367.97110984 -153.96053219 361.55081511 C-153.95748828 357.53189486 -153.95765875 353.51299024 -153.95951271 349.49407005 C-153.95981918 348.82229022 -153.96012564 348.15051038 -153.9604414 347.45837358 C-153.96108096 346.09294405 -153.96172939 344.72751452 -153.96238658 343.362085 C-153.96805109 330.64587608 -153.96158939 317.9296963 -153.95078585 305.21349217 C-153.94181676 294.31853808 -153.94343738 283.42362653 -153.95262337 272.52867317 C-153.96333125 259.82302278 -153.96754078 247.11739756 -153.96139884 234.41174328 C-153.96076182 233.05747168 -153.96013308 231.70320007 -153.95951271 230.34892845 C-153.95920416 229.68284522 -153.95889561 229.01676199 -153.95857771 228.33049443 C-153.95685508 223.65019708 -153.95985452 218.96992068 -153.96447182 214.28962517 C-153.97024562 208.00045786 -153.96624774 201.71137119 -153.9546833 195.4222126 C-153.95203896 193.11595099 -153.95279796 190.8096826 -153.95720863 188.50342369 C-153.96267307 185.35638349 -153.95581939 182.20960192 -153.94584846 179.0625782 C-153.95030991 178.1506297 -153.95477135 177.2386812 -153.95936799 176.2990979 C-153.92777215 171.1590162 -153.26103307 167.01450612 -151.69188118 162.12584114 C-151.48907168 158.65260928 -151.48907168 158.65260928 -151.62938118 155.25084114 C-151.68284892 153.20976838 -151.71259375 151.16750904 -151.69188118 149.12584114 C-151.36188118 148.79584114 -151.03188118 148.46584114 -150.69188118 148.12584114 C-150.61879728 145.70036926 -150.69548975 143.28971329 -150.75438118 140.86412239 C-150.59103666 133.7075906 -148.58617807 126.55289878 -147.15281868 119.55748177 C-146.38222332 115.75338603 -145.63899788 111.97011948 -145.12547493 108.12193489 C-144.70830848 105.2393523 -144.03437401 103.65288648 -142.69188118 101.12584114 C-141.65985653 97.70725949 -140.7301947 94.2733482 -139.83250618 90.81724739 C-138.08703923 85.16839032 -135.31215261 80.07375625 -132.58690071 74.8509388 C-131.79220157 73.31920281 -131.01969279 71.77599942 -130.25047493 70.23130989 C-126.27030339 62.48641769 -121.123872 55.88445679 -115.69188118 49.12584114 C-114.62647102 47.76072395 -114.62647102 47.76072395 -113.53953743 46.36802864 C-111.48451501 43.87419594 -109.23574071 42.11129248 -106.69188118 40.12584114 C-105.88750618 39.32146614 -105.08313118 38.51709114 -104.25438118 37.68834114 C-100.38047496 33.81443492 -96.61291086 30.58635598 -91.69188118 28.12584114 C-90.86688118 27.38334114 -90.04188118 26.64084114 -89.19188118 25.87584114 C-82.18411984 19.88931135 -72.81994081 16.64282764 -64.37156868 13.21959114 C-62.21948432 12.34118936 -60.1143652 11.41068401 -58.00438118 10.43834114 C-54.52541974 9.05988472 -51.17591645 8.2634344 -47.51219368 7.55552864 C-45.68290494 7.29211303 -45.68290494 7.29211303 -44.69188118 6.12584114 C-43.11255787 5.94158675 -41.52775562 5.80329358 -39.94188118 5.68834114 C-36.13384042 5.34756477 -33.19979965 4.68491602 -29.69188118 3.12584114 C-24.16657152 2.03837064 -18.64257475 1.7482503 -13.03172493 1.40709114 C-9.82845809 1.20665196 -9.82845809 1.20665196 -7.27638352 0.61612809 C-4.77826664 0.14222869 -2.53807948 0.00052089 0 0 Z " fill="#4DBCB7" transform="translate(369.69188117980957,217.87415885925293)"/>
<path d="M0 0 C0.76328613 0.11746582 1.52657227 0.23493164 2.31298828 0.35595703 C24.78044281 3.84570183 47.09626778 12.25801766 67.09375 22.97900391 C68.36797168 23.66148278 69.64669512 24.33562037 70.9296875 25.00146484 C87.30577209 33.50601279 102.20552375 44.47296386 115.36816406 57.39892578 C117.14616861 59.14341318 118.94435341 60.86581162 120.7421875 62.58984375 C148.23180609 89.22052 166.42514369 122.38258709 177 159 C177.30679687 160.0415625 177.61359375 161.083125 177.9296875 162.15625 C178.72900052 165.08981118 179.3846955 168.02236575 180 171 C180.41765625 172.86591797 180.41765625 172.86591797 180.84375 174.76953125 C186.28733453 202.08659714 184.4921913 232.08271633 178 259 C177.83483887 259.7213916 177.66967773 260.4427832 177.49951172 261.18603516 C173.56001906 278.12628985 166.33378052 294.77721175 158 310 C157.62117676 310.69577148 157.24235352 311.39154297 156.85205078 312.10839844 C149.41493133 325.61769284 140.55965009 337.44323707 130.05859375 348.73046875 C127.96994811 350.97871102 127.96994811 350.97871102 126.09765625 353.42578125 C125.50855469 354.17214844 124.91945313 354.91851563 124.3125 355.6875 C123.81363281 356.35136719 123.31476563 357.01523437 122.80078125 357.69921875 C121 359 121 359 118.22192383 358.72509766 C115.08661133 358.01949198 112.54593237 357.07231084 109.6484375 355.69921875 C108.64208252 355.22274902 107.63572754 354.7462793 106.59887695 354.25537109 C105.53499756 353.73797363 104.47111816 353.22057617 103.375 352.6875 C102.26922607 352.15205566 101.16345215 351.61661133 100.02416992 351.06494141 C80.58700077 341.50219521 62.64995758 329.84996471 46 316 C45.4956543 315.58588867 44.99130859 315.17177734 44.47167969 314.74511719 C34.36937821 306.42805824 25.13146925 297.36395868 16 288 C17.44897119 285.10205762 19.32201628 284.91361234 22.3125 283.75 C51.08887266 272.06917654 75.52170479 252.69965357 87.9140625 223.71484375 C88.27242187 222.81894531 88.63078125 221.92304688 89 221 C89.35835937 220.11441406 89.71671875 219.22882813 90.0859375 218.31640625 C99.2922993 193.36232033 97.83642145 166.07008397 87.06835938 141.90966797 C71.79732142 109.94467966 44.11059279 89.03036611 11.15234375 77.34765625 C-6.45170334 71.42945082 -25.16173832 68.85471048 -43.6796875 68.83203125 C-44.65430939 68.82870285 -45.62893127 68.82537445 -46.63308716 68.82194519 C-48.67840102 68.81692189 -50.72372294 68.81453543 -52.76904297 68.81469727 C-55.86049159 68.81251026 -58.95158294 68.79430344 -62.04296875 68.77539062 C-96.5038887 68.67441717 -124.78695191 79.60499835 -150 103.625 C-183.56421518 138.40301541 -194.70979672 189.26555192 -199.21850586 235.81860352 C-202.20972225 265.56933665 -208.78027773 294.26817462 -220 322 C-232.09118945 317.59090854 -240.84339719 291.72245925 -246.0078125 280.82421875 C-263.49178257 242.14206736 -266.53288465 194.54756797 -254 154 C-253.72414063 153.03707031 -253.44828125 152.07414063 -253.1640625 151.08203125 C-251.2963072 144.70925017 -249.13139749 138.7274305 -246.2734375 132.734375 C-244.96364443 129.92193589 -243.82508079 127.07344321 -242.6875 124.1875 C-239.76325938 117.07648948 -235.93420283 110.59267043 -232 104 C-231.55914062 103.2265625 -231.11828125 102.453125 -230.6640625 101.65625 C-221.72934366 87.39425749 -210.86067789 74.86067789 -199 63 C-198.04035258 62.00777969 -197.08208335 61.01422507 -196.125 60.01953125 C-186.84967054 50.4564797 -176.84071665 42.70895406 -166 35 C-165.01 34.01 -165.01 34.01 -164 33 C-159.82013862 29.54080437 -156.47234768 28 -151 28 C-151 27.34 -151 26.68 -151 26 C-144.34396023 22.28597154 -137.77259178 18.67305863 -130.609375 16.01953125 C-128.29494052 15.11523874 -126.05474212 14.12829668 -123.79296875 13.1015625 C-107.19914363 5.6918378 -89.85978542 1.92872646 -72 -1 C-71.2383252 -1.13277344 -70.47665039 -1.26554687 -69.69189453 -1.40234375 C-46.93907988 -5.2956396 -22.64672723 -3.69112525 0 0 Z " fill="#FCFCFC" transform="translate(551,285)"/>
<path d="M0 0 C1.9098468 -0.01925285 1.9098468 -0.01925285 3.85827637 -0.03889465 C5.24600832 -0.04707449 6.63374479 -0.05451581 8.02148438 -0.0612793 C8.72986954 -0.06535482 9.4382547 -0.06943035 10.16810608 -0.07362938 C13.93351951 -0.09447443 17.69889691 -0.1087707 21.46435547 -0.11816406 C24.53650257 -0.12694048 27.60818496 -0.14761459 30.68017578 -0.1796875 C60.2646179 -0.48177808 89.61732955 0.57850396 112.80273438 21.61450195 C122.40808801 31.63348326 127.54066037 44.76002149 127.86523438 58.48950195 C127.52010538 74.14745973 123.26602722 87.43157702 112.18164062 98.87231445 C93.73614737 115.43676045 68.92426766 123.78124338 44.97265625 128.45483398 C38.12011002 129.83757063 32.03245875 131.63891636 27.11523438 136.80200195 C24.49555684 142.69627641 24.5518283 147.26074596 26.76757812 153.3371582 C40.18153707 181.90331527 65.01829403 207.8220325 89.61523438 227.17700195 C91.32412297 228.61384182 93.03244117 230.05136031 94.74023438 231.48950195 C114.32773904 247.44763871 136.16339395 259.75365804 158.61523438 271.17700195 C156.40742124 273.6262469 154.37653043 274.93419101 151.36914062 276.26293945 C150.53858154 276.63378662 149.70802246 277.00463379 148.85229492 277.38671875 C147.96968994 277.77126221 147.08708496 278.15580566 146.17773438 278.55200195 C145.26612549 278.95265869 144.3545166 279.35331543 143.4152832 279.76611328 C141.61048982 280.55752601 139.80445046 281.34610452 137.99707031 282.1315918 C136.13167928 282.95032943 134.28059999 283.80168955 132.43554688 284.6652832 C111.42513809 294.23530619 85.03732079 299.23182674 61.99414062 299.4152832 C60.98485001 299.42503174 59.97555939 299.43478027 58.9356842 299.44482422 C17.40252342 299.76375654 17.40252342 299.76375654 -1.38476562 295.17700195 C-2.29323242 294.96317871 -3.20169922 294.74935547 -4.13769531 294.52905273 C-17.98835282 291.22627875 -17.98835282 291.22627875 -23.15039062 288.96606445 C-25.83678011 288.01737446 -26.71716847 288.28363732 -29.38476562 289.17700195 C-30.88909894 290.01115098 -32.36130159 290.90451766 -33.80664062 291.8371582 C-34.65895264 292.37961182 -35.51126465 292.92206543 -36.3894043 293.48095703 C-37.29537354 294.06127686 -38.20134277 294.64159668 -39.13476562 295.23950195 C-47.98918461 300.8083237 -56.8866893 305.80606467 -66.38476562 310.17700195 C-67.12887695 310.52102051 -67.87298828 310.86503906 -68.63964844 311.21948242 C-85.8109144 319.1119765 -103.20626398 325.04786651 -121.57226562 329.48950195 C-122.61374756 329.74666992 -122.61374756 329.74666992 -123.67626953 330.0090332 C-127.65491966 330.94084685 -131.30218988 331.34843204 -135.38476562 331.17700195 C-132.12768419 324.15570983 -128.3232337 317.97605254 -123.75976562 311.73950195 C-114.1351681 298.25096898 -106.26851569 284.02104885 -98.57226562 269.36450195 C-98.0449585 268.36330322 -97.51765137 267.36210449 -96.97436523 266.33056641 C-90.49448235 253.8218864 -85.58637919 241.50142138 -82.25976562 227.80200195 C-81.91609996 226.4247023 -81.57136321 225.04766948 -81.22558594 223.67089844 C-80.55900906 221.00927262 -79.89855036 218.34627943 -79.24511719 215.68139648 C-78.54823189 212.84283473 -77.84282525 210.0069076 -77.12695312 207.1730957 C-76.036919 202.85602735 -74.96328878 198.53501082 -73.90234375 194.21069336 C-72.18270468 187.20333144 -70.42647119 180.22465987 -68.38476562 173.30200195 C-66.843261 168.00307982 -65.55695059 162.69119381 -64.38476562 157.30200195 C-61.79766836 145.40961922 -58.84606789 133.67597113 -55.44726562 121.98950195 C-53.14881739 114.08508242 -51.13651776 106.15142948 -49.28173828 98.13232422 C-47.56034314 90.7514819 -45.58160209 83.45614553 -43.55151367 76.1550293 C-41.61419181 69.14347 -39.91435751 62.10287582 -38.34179688 55.0012207 C-37.63868201 52.19163108 -36.86432687 49.57319137 -35.91992188 46.84887695 C-34.51740284 42.75582905 -33.52256769 38.64934336 -32.59814453 34.42553711 C-29.98547193 22.49830724 -27.32604181 12.09034597 -17.38476562 4.17700195 C-11.65739837 0.7405816 -6.59701896 0.05820234 0 0 Z " fill="#FBFBFB" transform="translate(464.384765625,407.822998046875)"/>
<path d="M0 0 C1.00562988 0.00572021 2.01125977 0.01144043 3.04736328 0.01733398 C15.57984645 0.31639774 25.44981822 3.88803167 34.75 12.5 C35.37390625 13.04527344 35.9978125 13.59054688 36.640625 14.15234375 C45.8951644 22.70273342 50.61725452 33.99257448 52.09765625 46.41796875 C52.54399181 59.86625336 47.73128088 73.39032538 38.65209961 83.30688477 C27.89350153 94.3544428 14.67075872 99.44868478 -0.6875 99.9375 C-14.3563899 99.60240975 -25.98527059 94.53031592 -36 85.25 C-46.92126163 73.46446587 -50.93023499 60.29787124 -50.5859375 44.54296875 C-49.79436033 30.5386635 -42.38250883 19.66383696 -32.25 10.5 C-22.37785806 2.72860593 -12.44604522 -0.0826945 0 0 Z " fill="#25C3F8" transform="translate(745.25,217.5)"/>
<path d="M0 0 C0.97412338 -0.0033284 1.94824677 -0.0066568 2.95188904 -0.01008606 C5.00673962 -0.01512706 7.06159832 -0.01749526 9.11645508 -0.01733398 C12.21254492 -0.0195077 15.3082705 -0.0376587 18.40429688 -0.05664062 C29.3649392 -0.08788165 39.85741055 0.32031637 50.68359375 2.16796875 C52.22378012 2.39444447 53.76411725 2.61990045 55.3046875 2.84375 C84.13471639 7.65367294 110.03522963 19.44866678 131.68359375 39.16796875 C132.35777344 39.77125 133.03195312 40.37453125 133.7265625 40.99609375 C141.57207168 48.39277518 147.85772986 57.56474212 152.68359375 67.16796875 C152.02359375 68.15796875 151.36359375 69.14796875 150.68359375 70.16796875 C150.21050781 69.56210937 149.73742187 68.95625 149.25 68.33203125 C137.95381484 54.01912607 126.37964288 42.49022983 110.68359375 33.16796875 C110.05485352 32.78995117 109.42611328 32.41193359 108.77832031 32.02246094 C85.12367432 18.01154012 56.97379562 11.09656357 29.55859375 10.96484375 C28.61282471 10.95914368 27.66705566 10.9534436 26.69262695 10.9475708 C24.69922992 10.93817727 22.70581775 10.93160947 20.71240234 10.92773438 C17.71943775 10.91808432 14.72717744 10.88702903 11.734375 10.85546875 C-22.85431408 10.6642205 -51.18199101 21.03132641 -75.94140625 45.29296875 C-83.57897232 52.96630098 -90.06092802 60.69954606 -95.31640625 70.16796875 C-95.66171387 70.78671875 -96.00702148 71.40546875 -96.36279297 72.04296875 C-104.08344293 86.14751598 -110.0811658 101.24251559 -114.56640625 116.66796875 C-114.89922607 117.80238403 -114.89922607 117.80238403 -115.23876953 118.9597168 C-120.49023165 137.89508934 -122.7934097 157.35737772 -125.16821289 176.81201172 C-127.649782 197.00554358 -130.80037379 217.08480282 -136.69140625 236.60546875 C-136.97959229 237.58064453 -137.26777832 238.55582031 -137.56469727 239.56054688 C-140.23214488 248.34878907 -143.5709099 256.78898603 -147.31640625 265.16796875 C-148.30640625 265.16796875 -149.29640625 265.16796875 -150.31640625 265.16796875 C-151.6315918 263.84545898 -151.6315918 263.84545898 -152.953125 261.9765625 C-153.44417725 261.28651123 -153.93522949 260.59645996 -154.44116211 259.88549805 C-154.95686768 259.13308838 -155.47257324 258.38067871 -156.00390625 257.60546875 C-156.53701416 256.8369458 -157.07012207 256.06842285 -157.61938477 255.27661133 C-164.35539348 245.39760593 -169.74122839 235.10194332 -174.171875 223.98828125 C-175.30011891 221.20810344 -176.53846482 218.5071106 -177.81640625 215.79296875 C-181.85235412 206.96752577 -185.73007762 197.94011256 -186.31640625 188.16796875 C-184.31640625 189.16796875 -184.31640625 189.16796875 -183.5625 191.37109375 C-183.29566406 192.3765625 -183.02882813 193.38203125 -182.75390625 194.41796875 C-176.64542487 215.0510614 -166.68939601 236.20434537 -153.31640625 253.16796875 C-152.65640625 253.49796875 -151.99640625 253.82796875 -151.31640625 254.16796875 C-151.19491211 253.47171387 -151.07341797 252.77545898 -150.94824219 252.05810547 C-150.25849685 248.90308023 -149.27993139 245.97200278 -148.20703125 242.92578125 C-138.68293695 215.45550469 -132.9413942 187.9363902 -130.31640625 158.91796875 C-125.86299609 110.74593894 -109.93839078 57.90597189 -71.62060547 25.74462891 C-51.13423572 9.23280629 -26.37097401 0.03197288 0 0 Z " fill="#35C18A" transform="translate(482.31640625,352.83203125)"/>
<path d="M0 0 C1.35368596 1.31266518 2.68799596 2.64567325 4 4 C4.66 4.33 5.32 4.66 6 5 C5 8 5 8 3.44726562 9.02392578 C2.43696289 9.48001221 2.43696289 9.48001221 1.40625 9.9453125 C0.63643799 10.29553467 -0.13337402 10.64575684 -0.92651367 11.0065918 C-2.2003894 11.56020386 -2.2003894 11.56020386 -3.5 12.125 C-4.38856689 12.51534424 -5.27713379 12.90568848 -6.19262695 13.30786133 C-58.49563922 35.87056504 -116.35075349 43.59754854 -171.8203125 27.64453125 C-179.51037438 25.02197432 -179.51037438 25.02197432 -187.1875 26.25 C-188.48391787 27.13011127 -189.75232223 28.05205732 -191 29 C-192.88556802 30.20373316 -194.78289186 31.38912534 -196.6875 32.5625 C-198.36199219 33.60083984 -198.36199219 33.60083984 -200.0703125 34.66015625 C-224.44688864 49.38634918 -260.76348359 68.71979508 -290 67 C-289.67 64.03 -289.34 61.06 -289 58 C-291.475 58.495 -291.475 58.495 -294 59 C-294.33 57.68 -294.66 56.36 -295 55 C-294.67 55.66 -294.34 56.32 -294 57 C-278.89946672 53.91812536 -278.89946672 53.91812536 -264 50 C-262.64868838 49.62539589 -261.29710216 49.25178162 -259.9453125 48.87890625 C-252.75876486 46.86973815 -245.84101518 44.77318418 -239.11328125 41.49609375 C-236.58605843 40.28163159 -234.05416524 39.1446445 -231.48046875 38.03515625 C-218.87222345 32.57096975 -206.73970808 26.5002662 -195.48828125 18.5546875 C-193.91626953 17.44480469 -193.91626953 17.44480469 -192.3125 16.3125 C-191.42175781 15.64863281 -190.53101563 14.98476563 -189.61328125 14.30078125 C-186.22903926 12.61624824 -184.59809748 12.99555077 -181 14 C-179.84504028 14.47626831 -179.84504028 14.47626831 -178.66674805 14.9621582 C-173.80843654 16.85291003 -168.69638049 17.83190552 -163.625 19 C-162.53316406 19.26039063 -161.44132813 19.52078125 -160.31640625 19.7890625 C-144.85432184 23.36975573 -130.00962045 24.37302593 -114.19677734 24.37060547 C-111.0329706 24.37495468 -107.87059065 24.41132886 -104.70703125 24.44921875 C-71.26762447 24.63308306 -39.17656331 15.82120124 -9.09375 1.62890625 C-3.2866234 -1.09554113 -3.2866234 -1.09554113 0 0 Z " fill="#1A87CF" transform="translate(623,682)"/>
<path d="M0 0 C4.49434218 3.95077868 6.46700902 9.69925302 9 15 C9.48726562 15.98226563 9.97453125 16.96453125 10.4765625 17.9765625 C17.84177525 33.21900813 23.10702302 49.3252021 26 66 C26.22429687 67.27327148 26.22429687 67.27327148 26.453125 68.57226562 C30.34456055 91.70282434 31.46759884 117.8561935 27 141 C26.77401123 142.20994629 26.77401123 142.20994629 26.54345703 143.44433594 C21.562031 169.33243855 12.43388231 193.907904 -2 216 C-2.60199219 216.9590625 -3.20398438 217.918125 -3.82421875 218.90625 C-9.53950924 227.82066536 -16.162044 235.93562859 -23 244 C-23.55365234 244.6590332 -24.10730469 245.31806641 -24.67773438 245.99707031 C-26.26506378 247.87087041 -27.87643863 249.7200687 -29.5 251.5625 C-29.97985352 252.1289624 -30.45970703 252.6954248 -30.95410156 253.27905273 C-32.34375 254.81640625 -32.34375 254.81640625 -35 257 C-38.85258844 256.65039004 -42.00244069 255.21751847 -45.46484375 253.55859375 C-46.50519775 253.06157959 -47.54555176 252.56456543 -48.61743164 252.05249023 C-49.7130542 251.51954346 -50.80867676 250.98659668 -51.9375 250.4375 C-53.06470459 249.89101807 -54.19190918 249.34453613 -55.35327148 248.78149414 C-82.14623766 235.68515558 -127.97055954 210.05888092 -142 182 C-141.67 181.01 -141.34 180.02 -141 179 C-141.33 178.34 -141.66 177.68 -142 177 C-139.00617156 178.33869053 -136.97944329 179.79778956 -134.71484375 182.16015625 C-134.10785645 182.78422363 -133.50086914 183.40829102 -132.87548828 184.05126953 C-132.23595215 184.71497559 -131.59641602 185.37868164 -130.9375 186.0625 C-124.93038528 192.17067168 -118.79412853 197.76620283 -112 203 C-110.73641473 204.00319572 -109.47343816 205.00715842 -108.2109375 206.01171875 C-94.02949883 217.19523683 -79.11122182 226.54330109 -63.125 234.9375 C-61.61099609 235.73510742 -61.61099609 235.73510742 -60.06640625 236.54882812 C-52.89439487 240.23769187 -45.57553911 243.24045955 -38 246 C-37.57460938 245.08238892 -37.57460938 245.08238892 -37.140625 244.14624023 C-35.57806313 241.20606871 -33.4174113 239.34599221 -31 237.0625 C-20.98886265 227.32055028 -13.19430267 215.92164007 -6 204 C-5.5978125 203.33935547 -5.195625 202.67871094 -4.78125 201.99804688 C2.6907147 189.5875805 8.10734717 176.61478983 13 163 C13.27336182 162.25814453 13.54672363 161.51628906 13.82836914 160.75195312 C16.04146064 154.50023437 17.31739827 148.12938002 18.5625 141.625 C18.77068359 140.56539062 18.97886719 139.50578125 19.19335938 138.4140625 C19.60897276 136.28778963 20.01643956 134.15990829 20.41577148 132.03051758 C20.77592122 130.1623443 21.16088043 128.29851842 21.58618164 126.4440918 C23.58404352 117.24000727 23.35278024 107.93400968 23.3125 98.5625 C23.31034485 97.6678302 23.3081897 96.7731604 23.30596924 95.85137939 C23.25626265 83.02851742 23.01354927 70.5242248 20 58 C19.79600586 57.13391113 19.59201172 56.26782227 19.38183594 55.37548828 C15.3080148 38.50797121 9.77556078 22.13341359 2.13305664 6.54125977 C0 2.18240489 0 2.18240489 0 0 Z " fill="#1B80D7" transform="translate(710,398)"/>
<path d="M0 0 C3.27155439 3.72280327 5.15177666 7.46280452 7 12 C7.45761719 13.07636719 7.91523437 14.15273438 8.38671875 15.26171875 C13.33991679 28.3066277 14.60691349 43.17904216 9.23828125 56.3515625 C8.62533203 57.66253906 8.62533203 57.66253906 8 59 C7.62230469 59.89460938 7.24460937 60.78921875 6.85546875 61.7109375 C0.1941495 75.75806994 -12.4705129 85.13076181 -26 92 C-26.62213379 92.31662598 -27.24426758 92.63325195 -27.88525391 92.95947266 C-41.76851751 99.84893879 -56.74954425 103.51584079 -71.75 107.125 C-82.23899761 109.36688789 -82.23899761 109.36688789 -90 116 C-90.45772063 118.73872955 -90.45772063 118.73872955 -90.625 121.6875 C-90.69976562 122.68136719 -90.77453125 123.67523437 -90.8515625 124.69921875 C-90.90054687 125.45847656 -90.94953125 126.21773437 -91 127 C-95.07143358 123.08473099 -96.1303775 119.6803823 -96.375 114.0625 C-96.26134609 109.28193234 -95.27804669 106.62310424 -92 103 C-87.18986859 99.26121604 -82.68067919 97.8253624 -76.875 96.4375 C-75.60269531 96.11628174 -75.60269531 96.11628174 -74.3046875 95.78857422 C-70.79728886 94.90704625 -67.28404688 94.06468055 -63.7578125 93.26171875 C-42.30805138 88.30943679 -16.69216546 79.08589465 -3.4921875 60.40234375 C4.74463893 47.14148445 8.14388496 33.31999645 5.4296875 17.72265625 C4.18515628 12.4235733 2.58953996 7.80914564 0 3 C0 2.01 0 1.02 0 0 Z " fill="#20A9B5" transform="translate(585,439)"/>
<path d="M0 0 C2.85116749 0.3469341 3.87360364 0.86377872 5.859375 3.00390625 C6.48328125 3.84824219 7.1071875 4.69257813 7.75 5.5625 C20.14276551 21.61364647 37.50102418 33.26190137 57.71337891 36.70703125 C69.56484812 38.22547702 81.64589066 37.84458766 93 34 C93.7115625 33.80664062 94.423125 33.61328125 95.15625 33.4140625 C101.32317171 31.64222305 106.92087904 28.63972478 112.59277344 25.69262695 C117.80366203 23 117.80366203 23 120 23 C120.69906942 24.59915881 121.38389468 26.20455045 122.0625 27.8125 C122.44535156 28.70582031 122.82820312 29.59914063 123.22265625 30.51953125 C124 33 124 33 123 36 C122.34 35.34 121.68 34.68 121 34 C119.989375 34.70125 118.97875 35.4025 117.9375 36.125 C101.76704526 46.12851506 83.71396865 49.02262124 65 48 C63.71996094 47.93039062 62.43992187 47.86078125 61.12109375 47.7890625 C51.30324203 46.86767913 43.5893512 43.55662035 35 39 C35 38.34 35 37.68 35 37 C34.14019531 36.77183594 33.28039062 36.54367187 32.39453125 36.30859375 C28.54067994 34.82293185 25.76176228 32.73961987 22.6875 30.0625 C22.12208496 29.57450928 21.55666992 29.08651855 20.97412109 28.58374023 C12.07868239 20.71722326 5.4715965 11.52094761 0 1 C0 0.67 0 0.34 0 0 Z " fill="#1DB0CC" transform="translate(676,306)"/>
<path d="M0 0 C4.49434218 3.95077868 6.46700902 9.69925302 9 15 C9.48726562 15.98226563 9.97453125 16.96453125 10.4765625 17.9765625 C17.84177525 33.21900813 23.10702302 49.3252021 26 66 C26.14953125 66.84884766 26.2990625 67.69769531 26.453125 68.57226562 C29.55383293 87.00276663 29.32348411 105.3805866 29 124 C28.67 124 28.34 124 28 124 C27.67 114.1 27.34 104.2 27 94 C26.67 97.63 26.34 101.26 26 105 C25.67 105 25.34 105 25 105 C24.93268677 103.93023926 24.93268677 103.93023926 24.86401367 102.83886719 C22.6804568 68.95702581 17.20463216 37.29012423 2.13305664 6.54125977 C0 2.18240489 0 2.18240489 0 0 Z " fill="#0D89D8" transform="translate(710,398)"/>
<path d="M0 0 C2 1 2 1 2.75390625 3.203125 C3.02074219 4.20859375 3.28757812 5.2140625 3.5625 6.25 C9.09001288 24.92071018 18.33514843 42.18967389 28 59 C26.02 59.495 26.02 59.495 24 60 C19.6401758 52.08091486 15.49735053 44.2303943 12.14453125 35.8203125 C11.01628734 33.04013469 9.77794143 30.33914185 8.5 27.625 C4.46405213 18.79955702 0.58632863 9.77214381 0 0 Z " fill="#3DC397" transform="translate(296,541)"/>
<path d="M0 0 C4.49174372 3.94849448 6.47494714 9.69861476 9 15 C9.51046875 16.06347656 10.0209375 17.12695312 10.546875 18.22265625 C20.64616783 39.64460985 20.64616783 39.64460985 19 45 C19.08239105 46.754132 19.23098781 48.50611925 19.4375 50.25 C19.53933594 51.14203125 19.64117188 52.0340625 19.74609375 52.953125 C19.87177734 53.96632813 19.87177734 53.96632813 20 55 C18.08507237 51.59661333 17.23058263 48.22199445 16.3125 44.4375 C12.95812386 31.32627164 8.0883032 18.68723269 2.13354492 6.54296875 C0 2.18132756 0 2.18132756 0 0 Z " fill="#1EAEDD" transform="translate(710,398)"/>
<path d="M0 0 C3.23481232 2.66167741 4.60177195 6.10840646 6.1875 9.875 C6.46013672 10.48730469 6.73277344 11.09960938 7.01367188 11.73046875 C8.53310483 15.28723662 9.33101891 18.13075671 9 22 C5.52968751 18.81622707 4.09223243 15.26063632 2.25 11 C1.92128906 10.27554687 1.59257813 9.55109375 1.25390625 8.8046875 C-1.12297985 3.36893955 -1.12297985 3.36893955 0 0 Z " fill="#25B5B1" transform="translate(634,420)"/>
<path d="M0 0 C2.75242715 2.34781228 3.57242416 4.21336447 4.38671875 7.7109375 C4.60263672 8.62617188 4.81855469 9.54140625 5.04101562 10.484375 C5.25435547 11.43828125 5.46769531 12.3921875 5.6875 13.375 C5.91244141 14.32117188 6.13738281 15.26734375 6.36914062 16.2421875 C7.37615087 20.60079719 8.12678128 24.5070319 8 29 C4.43169927 23.6475489 3.21901511 18.07738083 1.875 11.875 C1.60236328 10.65876953 1.60236328 10.65876953 1.32421875 9.41796875 C0.612932 6.18241622 0 3.32644567 0 0 Z " fill="#0799DF" transform="translate(728,440)"/>
<path d="M0 0 C2.82152715 3.52468376 4.98269186 7.32679708 7.1875 11.25 C7.55552734 11.8996875 7.92355469 12.549375 8.30273438 13.21875 C9.20428903 14.81110627 10.10248417 16.4053638 11 18 C9.68 18.33 8.36 18.66 7 19 C5.81719526 16.96630002 4.65416773 14.92487318 3.5 12.875 C2.8503125 11.73804688 2.200625 10.60109375 1.53125 9.4296875 C-0.03239549 5.92744072 -0.32155356 3.77825437 0 0 Z " fill="#30B998" transform="translate(313,582)"/>
<path d="M0 0 C0.33 0 0.66 0 1 0 C1.18175781 1.03898437 1.36351562 2.07796875 1.55078125 3.1484375 C1.803248 4.55755034 2.05725853 5.96638712 2.3125 7.375 C2.44422607 8.10291748 2.57595215 8.83083496 2.71166992 9.58081055 C3.64703016 14.56921433 4.89445369 19.30834552 6.64453125 24.08203125 C7 26 7 26 5 29 C4.17925145 26.02289362 3.36827916 23.04366091 2.5625 20.0625 C2.21735352 18.81629883 2.21735352 18.81629883 1.86523438 17.54492188 C0.38230821 12.02155921 -0.59729773 6.71156606 -1 1 C-0.67 0.67 -0.34 0.34 0 0 Z " fill="#6AD6A0" transform="translate(667,271)"/>
<path d="M0 0 C3.29788344 3.75276392 5.17736986 7.36057782 7 12 C7.391875 12.86625 7.78375 13.7325 8.1875 14.625 C9.07530939 17.22013513 9.15563499 19.27638769 9 22 C8.01 21.67 7.02 21.34 6 21 C5.15625 18.48828125 5.15625 18.48828125 4.5 15.3125 C3.48570409 10.7937849 2.20466585 7.09437943 0 3 C0 2.01 0 1.02 0 0 Z " fill="#28BAB3" transform="translate(585,439)"/>
<path d="M0 0 C0.66 0 1.32 0 2 0 C3.32 2.97 4.64 5.94 6 9 C4.35 8.67 2.7 8.34 1 8 C0.67 5.36 0.34 2.72 0 0 Z " fill="#49C5A0" transform="translate(673,297)"/>
<path d="M0 0 C0.33 0.66 0.66 1.32 1 2 C4.3 1.67 7.6 1.34 11 1 C9.515 2.485 9.515 2.485 8 4 C6.82425289 6.09989652 6.82425289 6.09989652 6 8 C6 6.35 6 4.7 6 3 C4.35 3.33 2.7 3.66 1 4 C0.67 2.68 0.34 1.36 0 0 Z " fill="#2FAFD0" transform="translate(328,737)"/>
<path d="M0 0 C3 2 3 2 3.73046875 4.3828125 C3.88128906 5.28773438 4.03210938 6.19265625 4.1875 7.125 C4.34605469 8.03507812 4.50460937 8.94515625 4.66796875 9.8828125 C4.83232422 10.93082031 4.83232422 10.93082031 5 12 C4.34 12 3.68 12 3 12 C2.49166409 10.75336669 1.99368855 9.50250613 1.5 8.25 C1.2215625 7.55390625 0.943125 6.8578125 0.65625 6.140625 C0 4 0 4 0 0 Z " fill="#1398D1" transform="translate(722,424)"/>
<path d="M0 0 C-3.14591933 2.80045623 -5.067064 3.35261589 -9.25 3.1875 C-10.14203125 3.16042969 -11.0340625 3.13335937 -11.953125 3.10546875 C-12.62859375 3.07066406 -13.3040625 3.03585938 -14 3 C-14 2.67 -14 2.34 -14 2 C-9.15758367 0.66416101 -5.06562383 -0.25328119 0 0 Z " fill="#CDF862" transform="translate(339,221)"/>
<path d="M0 0 C1.98 0.99 1.98 0.99 4 2 C3.67 3.98 3.34 5.96 3 8 C2.01 7.01 1.02 6.02 0 5 C0.33 4.01 0.66 3.02 1 2 C0.67 1.34 0.34 0.68 0 0 Z " fill="#1E9EC6" transform="translate(568,575)"/>
<path d="M0 0 C0.66 0.33 1.32 0.66 2 1 C-0.97 3.475 -0.97 3.475 -4 6 C-4 5.01 -4 4.02 -4 3 C-2 1.3125 -2 1.3125 0 0 Z M-7 5 C-6.34 5.33 -5.68 5.66 -5 6 C-5.99 6 -6.98 6 -8 6 C-7.67 5.67 -7.34 5.34 -7 5 Z " fill="#CEF655" transform="translate(279,243)"/>
<path d="M0 0 C0.33 0 0.66 0 1 0 C1.33 4.62 1.66 9.24 2 14 C-0.95016944 8.09966113 -0.93495748 6.44081822 0 0 Z " fill="#0C94DD" transform="translate(736,470)"/>
</svg>
